<svg xmlns="http://www.w3.org/2000/svg" viewBox="0 0 512 512" enable-background="new 0 0 512 512"><path d="M256,0C114.841,0,0,114.841,0,256c0,141.16,114.841,256,256,256s256-114.84,256-256C512,114.841,397.159,0,256,0z
			 M461.255,137.544l-69.918,31.074c-12.42-19.169-28.786-35.535-47.956-47.955l31.075-69.918
			C410.414,71.579,440.421,101.586,461.255,137.544z M398.222,256c0,78.421-63.801,142.222-142.222,142.222
			S113.778,334.421,113.778,256S177.579,113.778,256,113.778S398.222,177.579,398.222,256z M256,18.963
			c36.355,0,70.82,8.237,101.64,22.927l-30.825,69.355c-21.389-10.507-45.419-16.43-70.815-16.43
			c-25.396,0-49.426,5.924-70.815,16.43L154.36,41.89C185.18,27.2,219.645,18.963,256,18.963z M137.544,50.745l31.074,69.918
			c-19.169,12.42-35.535,28.786-47.955,47.955l-69.918-31.074C71.579,101.586,101.586,71.579,137.544,50.745z M18.963,256
			c0-36.355,8.236-70.82,22.927-101.64l69.355,30.824c-10.507,21.39-16.43,45.42-16.43,70.816c0,25.396,5.924,49.426,16.43,70.815
			l-69.356,30.826C27.199,326.82,18.963,292.357,18.963,256z M50.745,374.456l69.918-31.074
			c12.42,19.169,28.786,35.535,47.955,47.953l-31.074,69.919C101.586,440.421,71.579,410.414,50.745,374.456z M256,493.037
			c-36.355,0-70.82-8.236-101.64-22.926l30.825-69.356c21.389,10.507,45.419,16.43,70.815,16.43c25.396,0,49.426-5.924,70.815-16.43
			l30.825,69.356C326.82,484.801,292.355,493.037,256,493.037z M374.456,461.255l-31.074-69.919
			c19.169-12.419,35.535-28.785,47.955-47.954l69.918,31.074C440.421,410.414,410.414,440.421,374.456,461.255z M400.755,326.815
			c10.507-21.389,16.43-45.419,16.43-70.815c0-25.396-5.924-49.426-16.43-70.816l69.355-30.824
			c14.691,30.82,22.927,65.285,22.927,101.64c0,36.357-8.236,70.82-22.926,101.641L400.755,326.815z"/><path d="M326.713,234.954c-1.167-5.204-3.046-9.75-5.639-13.639c-2.592-3.889-5.972-6.963-10.139-9.222
			c-4.167-2.259-9.25-3.389-15.25-3.389c-6.074,0-11.204,1.148-15.389,3.444c-4.185,2.296-7.574,5.417-10.167,9.361
			c-2.592,3.945-4.463,8.537-5.611,13.778c-1.148,5.241-1.722,10.824-1.722,16.75c0,6,0.602,11.602,1.805,16.806
			s3.111,9.722,5.722,13.555c2.611,3.833,5.991,6.843,10.139,9.028c4.148,2.185,9.185,3.278,15.111,3.278
			c5.926,0,10.981-1.129,15.167-3.389c4.185-2.259,7.583-5.333,10.194-9.222c2.611-3.889,4.519-8.454,5.722-13.694
			c1.204-5.241,1.806-10.843,1.806-16.806C328.463,245.704,327.88,240.157,326.713,234.954z M309.907,261.981
			c-0.296,3.185-0.963,5.935-2,8.25c-1.037,2.315-2.528,4.13-4.472,5.445c-1.944,1.315-4.565,1.972-7.861,1.972
			c-3.296,0-5.917-0.657-7.861-1.972s-3.426-3.13-4.444-5.445c-1.019-2.315-1.685-5.065-2-8.25
			c-0.315-3.185-0.472-6.648-0.472-10.389c0-3.667,0.157-7.083,0.472-10.25c0.315-3.167,0.991-5.926,2.028-8.278
			s2.537-4.194,4.5-5.528c1.963-1.333,4.593-2,7.889-2c3.259,0,5.861,0.667,7.806,2c1.944,1.333,3.426,3.176,4.444,5.528
			c1.018,2.352,1.676,5.111,1.972,8.278c0.296,3.167,0.444,6.583,0.444,10.25C310.352,255.333,310.204,258.796,309.907,261.981z"/><path d="M253.685,255.426c-1.518-3.333-3.565-6.139-6.139-8.417c-2.574-2.278-5.556-4-8.944-5.167
			c-3.389-1.166-6.972-1.75-10.75-1.75c-2.37,0-5.056,0.231-7.111,0.694c-2.056,0.463-3.852,1.028-6.222,1.695v-14.926h37.926
			v-18.963h-52.148v45.944l14.611,2.778c1.815-0.852,3.379-1.509,5.139-1.972c1.759-0.463,3.731-0.695,6.139-0.695
			c1.889,0,3.556,0.333,5.111,1c1.556,0.667,2.861,1.555,3.972,2.667c1.111,1.111,1.949,2.389,2.542,3.833
			c0.593,1.444,0.882,2.926,0.882,4.444c0,1.815-0.29,3.5-0.865,5.055c-0.574,1.555-1.381,2.917-2.418,4.083
			c-1.037,1.167-2.298,2.083-3.779,2.75c-1.482,0.667-3.112,1-4.89,1c-1.592,0-3.083-0.259-4.472-0.778
			c-1.389-0.518-2.611-1.259-3.667-2.222c-1.056-0.963-1.935-2.13-2.639-3.5c-0.704-1.371-1.167-2.926-1.389-4.667l-17.167,4.667
			c0.667,3.778,1.898,7.083,3.694,9.917c1.796,2.833,3.991,5.194,6.583,7.083c2.592,1.889,5.509,3.306,8.75,4.25
			s6.676,1.417,10.305,1.417c3.667,0,7.25-0.611,10.75-1.833c3.5-1.222,6.62-3.037,9.361-5.444c2.741-2.408,4.945-5.398,6.611-8.972
			c1.667-3.574,2.5-7.713,2.5-12.417C255.963,262.611,255.204,258.759,253.685,255.426z"/></svg>