<svg xmlns="http://www.w3.org/2000/svg" viewBox="0 0 512 512" enable-background="new 0 0 512 512"><path d="M494.345,423.724H17.655C7.904,423.724,0,415.82,0,406.069v-8.828c0-4.875,3.953-8.828,8.828-8.828
	h494.345c4.875,0,8.828,3.953,8.828,8.828v8.828C512,415.819,504.095,423.724,494.345,423.724z" fill="#c7cfe2"/><path d="M17.655,423.724h476.69c9.75,0,17.655-7.905,17.655-17.655H0C0,415.819,7.905,423.724,17.655,423.724
	z" fill="#afb9d2"/><path d="M291.955,406.069h-71.908c-5.015,0-9.6-2.834-11.843-7.319l-5.169-10.336h105.931l-5.167,10.336
	C301.555,403.235,296.97,406.069,291.955,406.069z" fill="#959cb3"/><path d="M494.345,388.414H17.655V105.931c0-9.751,7.904-17.655,17.655-17.655H476.69
	c9.751,0,17.655,7.904,17.655,17.655V388.414z" fill="#464655"/><path fill="#9bdc6e" d="M 44.138,114.759 H467.862 V361.931 H44.138 z"/><path d="M291.31,317.793H220.69c-4.875,0-8.828-3.953-8.828-8.828V167.724c0-4.875,3.953-8.828,8.828-8.828
	h70.621c4.875,0,8.828,3.953,8.828,8.828v141.241C300.138,313.841,296.185,317.793,291.31,317.793z" fill="#fff"/><g fill="#ff6464"><circle cx="256" cy="238.34" r="17.655"/><circle cx="229.52" cy="176.55" r="8.828"/><circle cx="282.48" cy="300.14" r="8.828"/></g><path d="M167.724,317.793H97.103c-4.875,0-8.828-3.953-8.828-8.828V167.724c0-4.875,3.953-8.828,8.828-8.828
	h70.621c4.875,0,8.828,3.953,8.828,8.828v141.241C176.552,313.841,172.599,317.793,167.724,317.793z" fill="#fff"/><g fill="#515262"><circle cx="132.41" cy="238.34" r="17.655"/><circle cx="105.93" cy="176.55" r="8.828"/><circle cx="158.9" cy="300.14" r="8.828"/></g><path d="M414.897,317.793h-70.621c-4.875,0-8.828-3.953-8.828-8.828V167.724c0-4.875,3.953-8.828,8.828-8.828
	h70.621c4.875,0,8.828,3.953,8.828,8.828v141.241C423.724,313.841,419.772,317.793,414.897,317.793z" fill="#fff"/><path fill="#959cb3" d="M 344.276,167.724 H414.897 V308.965 H344.276 z"/><circle cx="379.59" cy="238.34" r="17.655" fill="#fff"/></svg>