<svg xmlns="http://www.w3.org/2000/svg" viewBox="0 0 512 512" enable-background="new 0 0 512 512"><path d="M379.586,512H132.414c-14.626,0-26.483-11.857-26.483-26.483V26.483
	C105.931,11.857,117.788,0,132.414,0h247.172c14.626,0,26.483,11.857,26.483,26.483v459.034
	C406.069,500.143,394.212,512,379.586,512z" fill="#eff2fa"/><g fill="#515262"><path d="M258.724,193.91c-1.496-0.913-3.345-0.913-4.841,0c-11.456,6.989-59.677,38.559-59.677,74.803
		c0,18.837,15.246,34.108,34.054,34.108c6.156,0,11.925-1.64,16.905-4.504c1.428-0.821,3.097,0.631,2.537,2.191
		c-2.656,7.4-6.418,14.264-11.089,20.385c-1.784,2.338-0.071,5.728,2.851,5.728h34.041c2.923,0,4.632-3.391,2.848-5.731
		c-4.617-6.052-8.345-12.83-10.996-20.134c-0.563-1.551,1.082-3.006,2.515-2.208c4.881,2.719,10.494,4.273,16.477,4.273
		c18.807,0,34.053-15.271,34.053-34.108C318.402,232.469,270.182,200.899,258.724,193.91z"/><path d="M166.404,27.186c-0.788-0.481-1.762-0.481-2.55,0c-6.036,3.682-31.441,20.314-31.441,39.41
		c0,9.924,8.032,17.97,17.941,17.97c3.243,0,6.283-0.864,8.906-2.374c0.753-0.433,1.632,0.332,1.336,1.154
		c-1.399,3.898-3.381,7.514-5.842,10.74c-0.94,1.231-0.038,3.018,1.502,3.018h17.934c1.54,0,2.441-1.786,1.501-3.019
		c-2.433-3.189-4.397-6.76-5.793-10.607c-0.297-0.818,0.57-1.583,1.325-1.163c2.571,1.432,5.529,2.251,8.681,2.251
		c9.909,0,17.941-8.045,17.941-17.97C197.845,47.5,172.44,30.868,166.404,27.186z"/><path d="M345.596,484.814c0.788,0.481,1.762,0.481,2.55,0c6.036-3.682,31.441-20.314,31.441-39.409
		c0-9.924-8.032-17.97-17.941-17.97c-3.243,0-6.283,0.864-8.906,2.374c-0.753,0.433-1.632-0.332-1.336-1.154
		c1.399-3.898,3.381-7.514,5.842-10.74c0.94-1.231,0.038-3.018-1.502-3.018h-17.934c-1.54,0-2.441,1.786-1.501,3.019
		c2.433,3.189,4.397,6.76,5.793,10.607c0.297,0.818-0.57,1.583-1.325,1.163c-2.571-1.432-5.529-2.251-8.681-2.251
		c-9.909,0-17.941,8.045-17.941,17.97C314.155,464.5,339.56,481.132,345.596,484.814z"/></g></svg>