<svg xmlns="http://www.w3.org/2000/svg" viewBox="0 0 512 512" enable-background="new 0 0 512 512"><path d="M449.822,208.923c-5.017-9.553-13.343-16.303-23.443-19.009c-9.04-2.426-18.64-1.202-26.977,3.133
			c-5.053-7.923-12.754-13.78-21.795-16.202c-20.57-5.528-42.076,7.802-47.937,29.68c-3.364,12.558,5.826,34.163,14.128,50.079
			c6.628,12.706,19.169,34.403,28.674,36.948c0.855,0.231,1.806,0.338,2.842,0.338c10.487-0.002,29.458-11.001,40.464-17.999
			c15.147-9.631,33.91-23.747,37.274-36.305C455.858,229.12,454.71,218.231,449.822,208.923z M435.343,234.841
			c-0.831,3.104-8.719,12.073-27.038,24.054c-14.532,9.506-26.109,14.808-30.916,16.309c-3.411-3.704-10.786-14.085-18.619-29.582
			c-9.875-19.535-12.22-31.247-11.389-34.351c2.774-10.354,11.531-17.337,20.765-17.337c1.567,0,3.149,0.201,4.717,0.62
			c6.806,1.824,11.989,7.375,13.863,14.846c0.81,3.23,3.305,5.765,6.519,6.625c3.22,0.864,6.645-0.085,8.958-2.475
			c5.36-5.535,12.618-7.742,19.432-5.927c5.1,1.368,9.346,4.857,11.955,9.826C436.328,222.663,436.951,228.84,435.343,234.841z"/><path d="M505.839,137.013c-6.122-10.611-15.694-18.198-27.514-21.363l-90.997-24.465V86.41c0-25.28-21.177-45.847-46.445-45.847
			H230.322c-25.268,0-46.971,20.549-46.971,45.808v146.709H19.488C9.374,233.081,0,241.309,0,251.423v201.672
			c0,10.114,9.374,18.342,19.488,18.342H221.16c10.113,0,17.196-8.227,17.196-18.342V315.589h28.305
			c0.87,5.468,2.704,10.795,5.556,15.737c6.122,10.609,16.004,18.196,27.824,21.361l106.792,28.615
			c3.938,1.056,7.934,1.578,11.908,1.578c7.931,0,15.767-2.079,22.834-6.15c10.621-6.121,18.214-15.998,21.38-27.814l47.469-177.157
			C513.586,159.954,511.958,147.615,505.839,137.013z M220.444,453.102l-202.109-0.007V251.423l0.007-0.007l201.679,0.007v54.607
			c0,0.132,0.533,0.257,0.533,0.392c0,0.134,0.32,0.26,0.326,0.392L220.444,453.102z M267.633,296.58
			c-0.06,0.224-0.091,0.45-0.147,0.674h-29.131v-45.831c0-10.114-7.083-18.342-17.196-18.342h-19.474V86.372
			c0-15.148,13.478-27.473,28.636-27.473h110.561c15.158,0,28.11,12.341,28.11,27.512v0.013
			c-25.211-4.727-47.298,9.548-53.582,32.997l-1.729,5.875l-21.107-26.287c-1.74-2.173-4.411-3.44-7.197-3.44
			s-5.439,1.267-7.179,3.44l-55.014,68.756c-2.678,3.348-2.684,8.107-0.006,11.455l55.003,68.756
			c0.58,0.723,1.266,1.294,1.993,1.793L267.633,296.58z M307.636,147.281l-21.71,81.024l-43.851-54.813l43.265-54.081
			L307.636,147.281z M492.713,167.013L445.244,344.17c-1.897,7.079-6.45,12.999-12.824,16.67
			c-6.366,3.668-13.769,4.644-20.842,2.753l-106.793-28.615c-7.087-1.9-13.014-6.453-16.689-12.818
			c-2.142-3.713-3.338-7.78-3.611-11.925c0.536-1.164,0.854-2.449,0.854-3.814c0-0.992-0.198-1.927-0.489-2.822
			c0.138-0.759,0.29-1.52,0.493-2.274l40.773-152.166c0.448-0.976,0.734-2.008,0.821-3.069l5.875-21.925
			c3.92-14.631,19.028-23.342,33.665-19.423l106.793,28.615c7.087,1.9,13.014,6.453,16.689,12.82
			C493.63,152.539,494.609,159.938,492.713,167.013z"/><path d="M65.319,379.762c-15.165,0-27.503,12.337-27.503,27.503s12.338,27.503,27.503,27.503
			c15.165,0,27.503-12.337,27.503-27.503S80.483,379.762,65.319,379.762z M65.319,416.432c-5.055,0-9.168-4.111-9.168-9.167
			c0-5.056,4.113-9.168,9.168-9.168c5.055,0,9.167,4.111,9.167,9.168C74.486,412.32,70.374,416.432,65.319,416.432z"/><path d="M175.329,269.751c-15.165,0-27.503,12.337-27.503,27.503s12.338,27.503,27.503,27.503s27.503-12.337,27.503-27.503
			S190.493,269.751,175.329,269.751z M175.329,306.421c-5.055,0-9.167-4.111-9.167-9.168s4.113-9.168,9.167-9.168
			c5.055,0,9.168,4.111,9.168,9.168S180.384,306.421,175.329,306.421z"/></svg>