<svg xmlns="http://www.w3.org/2000/svg" viewBox="0 0 512 512" enable-background="new 0 0 512 512"><path d="M379.586,512H132.414c-14.626,0-26.483-11.857-26.483-26.483V26.483
	C105.931,11.857,117.788,0,132.414,0h247.172c14.626,0,26.483,11.857,26.483,26.483v459.034
	C406.069,500.143,394.212,512,379.586,512z" fill="#eff2fa"/><g fill="#515262"><path d="M293.42,244.079c-10.719-0.615-20.1,5.297-24.599,14.119c-0.993,1.948-2.649,3.478-4.725,4.164
		c-0.025,0.009-0.052,0.017-0.077,0.025c-1.764,0.582-3.529-0.922-3.252-2.761c0.608-4.038,1.562-7.961,2.829-11.743
		c0.687-2.054,2.19-3.702,4.122-4.682c8.846-4.491,14.779-13.886,14.163-24.622c-0.753-13.124-11.671-23.847-24.808-24.376
		c-14.806-0.597-26.996,11.229-26.996,25.902c0,10.108,5.796,18.841,14.238,23.113c1.914,0.969,3.4,2.605,4.082,4.639
		c1.27,3.79,2.229,7.723,2.838,11.77c0.277,1.837-1.487,3.342-3.252,2.761c-0.026-0.009-0.053-0.018-0.079-0.026
		c-2.074-0.686-3.729-2.216-4.722-4.161c-4.499-8.823-13.881-14.735-24.6-14.121c-13.126,0.753-23.847,11.672-24.376,24.808
		c-0.597,14.805,11.229,26.996,25.902,26.996c10.074,0,18.784-5.758,23.07-14.155c0.998-1.953,2.659-3.488,4.743-4.177
		c0.024-0.008,0.049-0.015,0.073-0.024c1.766-0.582,3.524,0.924,3.252,2.763c-1.831,12.316-6.878,23.578-14.261,32.913
		c-1.478,1.867-0.109,4.616,2.272,4.616h33.494c2.381,0,3.748-2.748,2.272-4.616c-7.383-9.334-12.431-20.597-14.261-32.913
		c-0.274-1.839,1.485-3.345,3.252-2.763c0.024,0.008,0.049,0.015,0.073,0.024c2.082,0.689,3.745,2.223,4.743,4.177
		c4.286,8.397,12.995,14.155,23.07,14.155c14.673,0,26.498-12.19,25.902-26.996C317.267,255.751,306.545,244.832,293.42,244.079z"/><path d="M189.088,54.954c-6.126-0.352-11.489,3.028-14.061,8.071c-0.568,1.113-1.514,1.988-2.701,2.38
		c-0.014,0.004-0.03,0.01-0.044,0.014c-1.009,0.332-2.017-0.527-1.858-1.578c0.348-2.307,0.894-4.551,1.617-6.712
		c0.393-1.174,1.252-2.116,2.356-2.677c5.057-2.567,8.448-7.937,8.096-14.073c-0.43-7.502-6.671-13.631-14.18-13.933
		c-8.462-0.341-15.431,6.419-15.431,14.806c0,5.778,3.313,10.77,8.139,13.21c1.095,0.554,1.943,1.489,2.333,2.652
		c0.726,2.166,1.274,4.415,1.622,6.728c0.158,1.05-0.85,1.91-1.858,1.578c-0.015-0.006-0.031-0.01-0.045-0.015
		c-1.185-0.393-2.132-1.267-2.699-2.379c-2.572-5.044-7.935-8.423-14.062-8.072c-7.502,0.43-13.631,6.671-13.933,14.18
		c-0.341,8.462,6.419,15.431,14.806,15.431c5.759,0,10.738-3.292,13.187-8.092c0.57-1.117,1.521-1.994,2.711-2.388
		c0.014-0.004,0.028-0.009,0.042-0.013c1.01-0.332,2.015,0.529,1.858,1.579c-1.046,7.039-3.932,13.478-8.151,18.813
		c-0.846,1.07-0.064,2.641,1.297,2.641h19.146c1.361,0,2.143-1.57,1.299-2.638c-4.22-5.335-7.105-11.774-8.151-18.813
		c-0.157-1.052,0.849-1.912,1.858-1.579c0.014,0.004,0.028,0.009,0.042,0.013c1.191,0.394,2.141,1.271,2.711,2.388
		c2.45,4.8,7.428,8.092,13.187,8.092c8.387,0,15.147-6.968,14.806-15.431C202.719,61.625,196.59,55.384,189.088,54.954z"/><path d="M322.911,457.046c6.126,0.352,11.489-3.028,14.061-8.071c0.568-1.113,1.514-1.988,2.701-2.38
		c0.014-0.004,0.03-0.01,0.044-0.014c1.009-0.332,2.017,0.527,1.858,1.578c-0.348,2.307-0.894,4.551-1.617,6.712
		c-0.393,1.174-1.252,2.116-2.356,2.677c-5.057,2.567-8.448,7.937-8.096,14.073c0.43,7.502,6.671,13.631,14.18,13.933
		c8.462,0.341,15.431-6.419,15.431-14.806c0-5.778-3.313-10.77-8.139-13.212c-1.095-0.554-1.943-1.489-2.333-2.652
		c-0.726-2.167-1.274-4.415-1.622-6.728c-0.158-1.05,0.85-1.91,1.858-1.578c0.015,0.006,0.031,0.01,0.045,0.015
		c1.185,0.393,2.132,1.267,2.699,2.379c2.572,5.044,7.935,8.423,14.062,8.072c7.502-0.43,13.631-6.671,13.933-14.18
		c0.341-8.462-6.419-15.431-14.806-15.431c-5.759,0-10.738,3.292-13.187,8.092c-0.57,1.117-1.521,1.994-2.711,2.388
		c-0.014,0.004-0.028,0.009-0.042,0.013c-1.01,0.332-2.015-0.529-1.858-1.579c1.046-7.039,3.932-13.478,8.152-18.813
		c0.844-1.067,0.063-2.638-1.299-2.638h-19.146c-1.361,0-2.143,1.57-1.299,2.638c4.22,5.335,7.105,11.774,8.151,18.813
		c0.157,1.052-0.849,1.912-1.858,1.579c-0.014-0.004-0.028-0.009-0.042-0.013c-1.191-0.394-2.141-1.271-2.711-2.388
		c-2.45-4.8-7.428-8.092-13.187-8.092c-8.387,0-15.147,6.968-14.806,15.431C309.28,450.374,315.41,456.616,322.911,457.046z"/></g></svg>