<svg xmlns="http://www.w3.org/2000/svg" viewBox="0 0 512 512" enable-background="new 0 0 512 512"><path fill="#afb9d2" d="M 450.207,176.552 H467.862 V353.104 H450.207 z"/><circle cx="459.03" cy="172.14" r="17.655" fill="#ff6464"/><path d="M451.972,172.138c0-7.893,5.214-14.496,12.359-16.757c-1.683-0.532-3.438-0.898-5.297-0.898
	c-9.751,0-17.655,7.904-17.655,17.655c0,9.75,7.904,17.655,17.655,17.655c1.858,0,3.614-0.366,5.297-0.898
	C457.186,186.634,451.972,180.03,451.972,172.138z" fill="#d2555a"/><path d="M467.862,370.759h-70.621v-52.966h70.621c4.875,0,8.828,3.953,8.828,8.828v35.31
	C476.69,366.806,472.737,370.759,467.862,370.759z" fill="#959cb3"/><path fill="#707487" d="m 61.793 414.9 -17.653 79.45 388.41 0 -17.65 -79.45"/><path fill="#5b5d6e" d="m 61.793 414.9 -5.886 26.48 364.87 0 -5.88 -26.48"/><path d="M423.724,423.724H52.966c-4.875,0-8.828-3.953-8.828-8.828v-88.276h388.414v88.276
	C432.552,419.772,428.599,423.724,423.724,423.724z" fill="#959cb3"/><g fill="#afb9d2"><path d="M44.138,379.586h388.414c4.875,0,8.828-3.953,8.828-8.828v-52.966c0-4.875-3.953-8.828-8.828-8.828
		H44.138c-4.875,0-8.828,3.953-8.828,8.828v52.966C35.31,375.634,39.263,379.586,44.138,379.586z"/><path d="M414.897,141.241H61.793V52.966c0-9.751,7.904-17.655,17.655-17.655h317.793
		c9.751,0,17.655,7.904,17.655,17.655V141.241z"/></g><path d="M423.724,308.966H52.966V132.414c0-4.875,3.953-8.828,8.828-8.828h353.103
	c4.875,0,8.828,3.953,8.828,8.828V308.966z" fill="#c7cfe2"/><path d="M397.241,264.828H79.448c-4.875,0-8.828-3.953-8.828-8.828V150.069c0-4.875,3.953-8.828,8.828-8.828
	h317.793c4.875,0,8.828,3.953,8.828,8.828V256C406.069,260.875,402.116,264.828,397.241,264.828z" fill="#afb9d2"/><path d="M169.091,247.172H95.736c-4.12,0-7.46-3.34-7.46-7.46v-73.355c0-4.12,3.34-7.46,7.46-7.46h73.355
	c4.12,0,7.46,3.34,7.46,7.46v73.355C176.552,243.832,173.212,247.172,169.091,247.172z" fill="#eff2fa"/><g fill="#ff6464"><path d="M116.988,193.553h18.964c-16,7.507-14.222,37.927-14.222,37.927h23.704
		c0-31.704,18.964-47.409,18.964-47.409l-4.74-9.482h-52.173c-2.606,0-4.718,2.112-4.718,4.718v23.727h9.46
		c2.631,0,4.764-2.133,4.764-4.764v-4.718H116.988z"/><path d="M88.276,194.207v17.655c4.875,0,8.828-3.953,8.828-8.828S93.151,194.207,88.276,194.207z"/><path d="M176.552,211.862v-17.655c-4.875,0-8.828,3.953-8.828,8.828S171.677,211.862,176.552,211.862z"/></g><path d="M275.022,247.172h-73.355c-4.12,0-7.46-3.34-7.46-7.46v-73.355c0-4.12,3.34-7.46,7.46-7.46h73.355
	c4.12,0,7.46,3.34,7.46,7.46v73.355C282.483,243.832,279.143,247.172,275.022,247.172z" fill="#eff2fa"/><g fill="#ff6464"><path d="M222.919,193.553h18.964c-16,7.507-14.222,37.927-14.222,37.927h23.704
		c0-31.704,18.964-47.409,18.964-47.409l-4.74-9.482h-52.172c-2.606,0-4.718,2.112-4.718,4.718v23.727h9.46
		c2.631,0,4.764-2.133,4.764-4.764v-4.718H222.919z"/><path d="M194.207,194.207v17.655c4.875,0,8.828-3.953,8.828-8.828S199.082,194.207,194.207,194.207z"/><path d="M282.483,211.862v-17.655c-4.875,0-8.828,3.953-8.828,8.828S277.607,211.862,282.483,211.862z"/></g><path d="M380.953,247.172h-73.355c-4.12,0-7.46-3.34-7.46-7.46v-73.355c0-4.12,3.34-7.46,7.46-7.46h73.355
	c4.12,0,7.46,3.34,7.46,7.46v73.355C388.414,243.832,385.074,247.172,380.953,247.172z" fill="#eff2fa"/><g fill="#ff6464"><path d="M328.85,193.553h18.964c-16,7.507-14.222,37.927-14.222,37.927h23.704
		c0-31.704,18.964-47.409,18.964-47.409l-4.74-9.482h-52.172c-2.606,0-4.718,2.112-4.718,4.718v23.727h9.46
		c2.631,0,4.764-2.133,4.764-4.764v-4.718H328.85z"/><path d="M300.138,194.207v17.655c4.875,0,8.828-3.953,8.828-8.828S305.013,194.207,300.138,194.207z"/><path d="M388.414,211.862v-17.655c-4.875,0-8.828,3.953-8.828,8.828S383.538,211.862,388.414,211.862z"/></g><path d="M388.414,52.966H88.276c-4.875,0-8.828,3.953-8.828,8.828v35.31c0,4.875,3.953,8.828,8.828,8.828
	h300.138c4.875,0,8.828-3.953,8.828-8.828v-35.31C397.241,56.918,393.289,52.966,388.414,52.966z" fill="#ffe669"/><path d="M378.275,282.483c-3.672,0-7.256,2.097-8.417,5.58c-2.335,7.016-8.954,12.075-16.755,12.075
	c-7.8,0-14.42-5.059-16.755-12.075c-1.16-3.484-4.745-5.58-8.417-5.58h-18.966c-4.875,0-8.828,3.953-8.828,8.828v17.655h88.276
	V291.31c0-4.875-3.953-8.828-8.828-8.828H378.275z" fill="#959cb3"/><g fill="#ffe669"><path d="M123.586,308.966h-35.31v-8.828c0-4.875,3.953-8.828,8.828-8.828h17.655
		c4.875,0,8.828,3.953,8.828,8.828V308.966z"/><path d="M176.552,308.966h-35.31v-8.828c0-4.875,3.953-8.828,8.828-8.828h17.655
		c4.875,0,8.828,3.953,8.828,8.828V308.966z"/></g><g fill="#ff6464"><path d="M229.517,308.966h-35.31v-8.828c0-4.875,3.953-8.828,8.828-8.828h17.655
		c4.875,0,8.828,3.953,8.828,8.828V308.966z"/><path d="M282.483,308.966h-35.31v-8.828c0-4.875,3.953-8.828,8.828-8.828h17.655
		c4.875,0,8.828,3.953,8.828,8.828V308.966z"/><circle cx="238.34" cy="17.655" r="17.655"/></g><path d="M233.931,17.655c0-7.405,4.569-13.725,11.034-16.345C242.918,0.479,240.69,0,238.345,0
	c-9.751,0-17.655,7.904-17.655,17.655c0,9.75,7.904,17.655,17.655,17.655c2.345,0,4.574-0.479,6.621-1.31
	C238.5,31.38,233.931,25.06,233.931,17.655z" fill="#d2555a"/><path d="M264.828,35.31h-52.966v-8.828c0-4.875,3.953-8.828,8.828-8.828H256c4.875,0,8.828,3.953,8.828,8.828
	V35.31z" fill="#c7cfe2"/><circle cx="317.79" cy="17.655" r="17.655" fill="#ff6464"/><path d="M313.379,17.655c0-7.405,4.569-13.725,11.034-16.345C322.366,0.479,320.138,0,317.793,0
	c-9.751,0-17.655,7.904-17.655,17.655c0,9.75,7.904,17.655,17.655,17.655c2.345,0,4.574-0.479,6.621-1.31
	C317.949,31.38,313.379,25.06,313.379,17.655z" fill="#d2555a"/><path d="M344.276,35.31H291.31v-8.828c0-4.875,3.953-8.828,8.828-8.828h35.31
	c4.875,0,8.828,3.953,8.828,8.828V35.31z" fill="#c7cfe2"/><circle cx="158.9" cy="17.655" r="17.655" fill="#ff6464"/><path d="M154.483,17.655c0-7.405,4.569-13.725,11.034-16.345C163.47,0.479,161.241,0,158.897,0
	c-9.751,0-17.655,7.904-17.655,17.655c0,9.75,7.904,17.655,17.655,17.655c2.345,0,4.574-0.479,6.621-1.31
	C159.052,31.38,154.483,25.06,154.483,17.655z" fill="#d2555a"/><path d="M185.379,35.31h-52.966v-8.828c0-4.875,3.953-8.828,8.828-8.828h35.31
	c4.875,0,8.828,3.953,8.828,8.828V35.31z" fill="#c7cfe2"/><path d="m 114.76 88.28 c -4.875 0 -8.828 -3.953 -8.828 -8.828 c 0 -4.875 3.953 -8.828 8.828 -8.828 c 4.875 0 8.828 3.953 8.828 8.828 c -0.001 4.875 -3.953 8.828 -8.828 8.828 z" fill="#ff6464"/><path d="M167.724,88.276h-26.483c-4.875,0-8.828-3.953-8.828-8.828l0,0c0-4.875,3.953-8.828,8.828-8.828
	h26.483c4.875,0,8.828,3.953,8.828,8.828l0,0C176.552,84.323,172.599,88.276,167.724,88.276z" fill="#fff"/><path d="m 308.97 88.28 c -4.875 0 -8.828 -3.953 -8.828 -8.828 c 0 -4.875 3.953 -8.828 8.828 -8.828 c 4.875 0 8.828 3.953 8.828 8.828 c -0.001 4.875 -3.953 8.828 -8.828 8.828 z" fill="#ff6464"/><path d="M361.931,88.276h-26.483c-4.875,0-8.828-3.953-8.828-8.828l0,0c0-4.875,3.953-8.828,8.828-8.828
	h26.483c4.875,0,8.828,3.953,8.828,8.828l0,0C370.759,84.323,366.806,88.276,361.931,88.276z" fill="#fff"/><path d="m 203.03 88.28 c -4.875 0 -8.828 -3.953 -8.828 -8.828 c 0 -4.875 3.953 -8.828 8.828 -8.828 c 4.875 0 8.828 3.953 8.828 8.828 c 0 4.875 -3.952 8.828 -8.828 8.828 z" fill="#ff6464"/><path d="M273.655,88.276h-44.138c-4.875,0-8.828-3.953-8.828-8.828l0,0c0-4.875,3.953-8.828,8.828-8.828
	h44.138c4.875,0,8.828,3.953,8.828,8.828l0,0C282.483,84.323,278.53,88.276,273.655,88.276z" fill="#fff"/><path d="M308.966,361.931h70.621c4.875,0,8.828-3.953,8.828-8.828v-17.655c0-4.875-3.953-8.828-8.828-8.828
	h-70.621c-4.875,0-8.828,3.953-8.828,8.828v17.655C300.138,357.978,304.09,361.931,308.966,361.931z" fill="#5b5d6e"/><path fill="#ffe669" d="m 281.93 344.28 -32.01 -18.49 0 9.66 -29.23 0 0 17.65 29.23 0 0 9.66"/><g fill="#eff2fa"><circle cx="194.21" cy="344.28" r="8.828"/><circle cx="123.59" cy="344.28" r="8.828"/><circle cx="158.9" cy="344.28" r="8.828"/><circle cx="88.28" cy="344.28" r="8.828"/></g><path d="M432.552,512H44.138c-4.875,0-8.828-3.953-8.828-8.828v-8.828c0-4.875,3.953-8.828,8.828-8.828
	h388.414c4.875,0,8.828,3.953,8.828,8.828v8.828C441.379,508.047,437.427,512,432.552,512z" fill="#959cb3"/><path d="M361.931,512H114.759c-4.875,0-8.828-3.953-8.828-8.828v-17.655c0-4.875,3.953-8.828,8.828-8.828
	h247.172c4.875,0,8.828,3.953,8.828,8.828v17.655C370.759,508.047,366.806,512,361.931,512z" fill="#afb9d2"/></svg>