<svg xmlns="http://www.w3.org/2000/svg" viewBox="0 0 100.54166 23.812501" height="90" width="380"><g transform="translate(-57.93 -88.54)"><path d="m 120.32 92.35 -24.09 8.307 24.19 7.882 -0.094 -1.841 -19.02 -6.04 19.07 -6.324 z" fill="#e11e22" stroke="#e11e22" stroke-width="0.234"/><path d="m 103.87 111.21 c -14.543 -0.162 -28.465 -0.267 -36.07 -0.271 -8.349 -0.005 -8.439 -0.009 -8.507 -0.364 -0.034 -0.176 0.699 -0.203 10.332 -0.388 26.621 -0.511 48.597 -0.666 59.35 -0.419 11.199 0.258 12.815 0.298 17.06 0.421 7.853 0.227 10.656 0.336 10.884 0.422 l 0.222 0.085 -0.222 0.095 c -0.144 0.061 -2.339 0.118 -6.264 0.162 -3.323 0.037 -9.46 0.109 -13.638 0.161 -11.203 0.138 -25.716 0.18 -33.14 0.097 z m -39.936 -6.142 c -1.75 -0.219 -3.355 -1.104 -4.094 -2.259 -0.455 -0.711 -0.595 -1.324 -0.557 -2.434 0.03 -0.887 0.055 -0.996 0.365 -1.623 0.851 -1.723 2.856 -2.707 5.708 -2.801 1.051 -0.035 1.389 -0.011 2.176 0.155 0.96 0.202 1.745 0.459 2.133 0.697 0.507 0.311 0.977 0.748 0.977 0.906 0 0.211 -0.327 0.432 -0.735 0.499 -0.264 0.043 -0.359 0.005 -0.654 -0.259 -0.82 -0.736 -1.752 -0.988 -3.632 -0.982 -2 0.007 -3.045 0.337 -4.03 1.273 -0.248 0.236 -0.562 0.642 -0.699 0.902 -0.226 0.43 -0.249 0.557 -0.249 1.406 -0.001 0.82 0.026 0.986 0.221 1.371 0.482 0.951 1.336 1.627 2.484 1.968 0.716 0.213 2.057 0.311 2.958 0.217 1.321 -0.138 2.096 -0.418 2.813 -1.017 0.432 -0.361 0.505 -0.374 0.931 -0.171 0.442 0.211 0.491 0.505 0.135 0.812 -0.386 0.333 -1.338 0.874 -1.835 1.043 -1.022 0.347 -2.973 0.478 -4.422 0.297 z m 30.966 0.009 c -0.973 -0.136 -1.416 -0.255 -2 -0.539 -1.106 -0.533 -1.699 -1.254 -1.795 -2.179 -0.066 -0.636 0.034 -0.746 0.679 -0.746 0.581 0 0.718 0.097 0.718 0.509 0 0.339 0.203 0.872 0.425 1.118 0.591 0.653 2.635 1.044 4.514 0.862 1.466 -0.142 2.251 -0.465 2.484 -1.023 0.171 -0.408 0.161 -0.657 -0.039 -0.984 -0.149 -0.244 -0.297 -0.312 -1.399 -0.641 -0.678 -0.202 -1.553 -0.412 -1.943 -0.466 -1.884 -0.259 -3.434 -0.66 -4.072 -1.055 -1.426 -0.882 -1.352 -2.596 0.144 -3.354 1.296 -0.657 3.921 -0.855 5.77 -0.436 1.099 0.249 1.475 0.404 2 0.827 0.588 0.47 0.913 1.261 0.775 1.888 l -0.062 0.281 -0.547 -0.062 c -0.301 -0.034 -0.592 -0.099 -0.648 -0.144 -0.056 -0.045 -0.129 -0.263 -0.162 -0.484 -0.046 -0.305 -0.149 -0.494 -0.432 -0.787 -0.435 -0.452 -0.727 -0.553 -2 -0.693 -1.067 -0.117 -2.807 0.005 -3.499 0.246 -0.58 0.202 -0.958 0.646 -0.958 1.125 0 0.311 0.053 0.417 0.35 0.699 0.394 0.375 0.839 0.505 2.537 0.742 3.343 0.467 4.503 0.784 5.183 1.419 0.467 0.436 0.566 0.695 0.505 1.326 -0.077 0.791 -0.192 1.082 -0.557 1.402 -0.448 0.393 -1.448 0.848 -2.243 1.02 -0.781 0.169 -2.901 0.24 -3.728 0.125 z m -23.303 -0.121 c -0.144 -0.11 -0.155 -0.426 -0.155 -4.393 l 0 -4.275 l 0.22 -0.144 c 0.196 -0.129 0.58 -0.14 3.532 -0.102 3.612 0.046 4.113 0.103 5.04 0.575 0.862 0.438 1.291 1.344 1.09 2.302 -0.133 0.634 -0.371 0.982 -0.968 1.415 -0.26 0.189 -0.473 0.353 -0.473 0.365 0 0.012 0.126 0.088 0.279 0.167 0.395 0.204 0.862 0.739 0.965 1.104 0.048 0.171 0.088 0.899 0.088 1.618 0.001 1.487 -0.001 1.491 -0.743 1.491 -0.645 0 -0.679 -0.078 -0.679 -1.561 l 0 -1.282 l -0.321 -0.355 c -0.54 -0.597 -0.823 -0.647 -3.916 -0.69 l -2.683 -0.037 -0.027 1.877 c -0.022 1.551 -0.05 1.892 -0.161 1.961 -0.196 0.124 -0.909 0.1 -1.088 -0.037 z m 6.957 -4.972 c 0.32 -0.106 0.692 -0.264 0.826 -0.352 0.699 -0.458 0.794 -1.449 0.196 -2.047 -0.463 -0.463 -0.906 -0.527 -3.937 -0.569 l -2.776 -0.039 l 0 1.61 0 1.61 l 2.554 -0.011 c 2.364 -0.01 2.598 -0.025 3.137 -0.203 z m 3.744 4.989 c -0.08 -0.08 -0.107 -1.196 -0.107 -4.476 l 0 -4.37 l 0.2 -0.054 c 0.11 -0.029 2.04 -0.054 4.289 -0.055 3.559 -0.001 4.115 0.017 4.287 0.137 0.224 0.157 0.269 0.58 0.078 0.738 -0.082 0.068 -1.274 0.106 -3.843 0.122 l -3.724 0.023 -0.024 1.399 -0.024 1.399 l 3.251 0 c 2.071 0 3.313 0.033 3.423 0.092 0.118 0.063 0.172 0.186 0.172 0.395 0 0.578 -0.007 0.579 -3.62 0.579 l -3.225 0 l 0.024 1.577 0.024 1.577 3.768 0.023 c 2.601 0.016 3.805 0.054 3.887 0.122 0.162 0.135 0.15 0.566 -0.021 0.737 -0.123 0.123 -0.648 0.14 -4.425 0.14 -3.214 0 -4.312 -0.027 -4.392 -0.107 z m 66.839 0.048 c -1.952 -0.234 -3.757 -1.318 -4.392 -2.638 -0.702 -1.459 -0.472 -3.449 0.523 -4.529 0.822 -0.892 1.845 -1.373 3.533 -1.662 2.095 -0.358 4.382 -0.114 5.959 0.637 0.763 0.363 1.664 1.25 2 1.97 0.44 0.941 0.48 2.23 0.1 3.203 -0.196 0.501 -0.784 1.332 -1.169 1.652 -0.382 0.317 -1.54 0.899 -2.201 1.106 -0.712 0.223 -1.602 0.317 -2.887 0.305 -0.66 -0.006 -1.319 -0.026 -1.466 -0.044 z m 3.554 -1.137 c 0.293 -0.077 0.823 -0.281 1.177 -0.454 0.792 -0.387 1.455 -1.136 1.684 -1.904 0.168 -0.56 0.184 -1.474 0.036 -2.01 -0.234 -0.852 -1.083 -1.714 -2.054 -2.084 -1.575 -0.6 -4.398 -0.563 -5.864 0.078 -1.567 0.685 -2.299 2.32 -1.79 3.995 0.405 1.335 1.449 2.118 3.288 2.468 0.844 0.16 2.758 0.114 3.522 -0.086 z m -40.07 1.023 c -0.095 -0.095 -0.094 -8.73 0.001 -8.884 0.04 -0.064 1.405 -0.094 4.298 -0.094 4.675 0 4.635 -0.005 4.635 0.533 0 0.53 -0.02 0.533 -4.02 0.533 l -3.623 0 l 0 1.422 0 1.422 l 3.329 0 c 3.2 0 3.332 0.007 3.421 0.172 0.136 0.255 0.113 0.429 -0.086 0.628 -0.171 0.171 -0.296 0.178 -3.421 0.178 l -3.243 0 l 0 1.599 0 1.599 l 3.718 0 c 3.668 0 3.72 0.003 3.887 0.187 0.173 0.191 0.18 0.48 0.016 0.679 -0.113 0.138 -8.777 0.164 -8.914 0.027 z m 9.34 -0.055 c -0.123 -0.123 -0.139 -0.638 -0.138 -4.331 0.001 -2.305 0.031 -4.236 0.067 -4.289 0.111 -0.166 0.44 -0.302 0.732 -0.302 0.465 0 0.464 0 2.443 1.864 0.342 0.322 1.32 1.224 2.172 2 0.853 0.78 2.032 1.864 2.621 2.408 l 1.071 0.99 0.022 -3.477 c 0.021 -3.42 0.025 -3.48 0.21 -3.633 0.259 -0.214 0.797 -0.201 1.04 0.026 l 0.194 0.181 l 0 4.21 c 0 4.831 0.062 4.49 -0.814 4.49 -0.529 0 -0.54 -0.005 -1.082 -0.515 -1.545 -1.452 -3.609 -3.378 -4.636 -4.327 -0.635 -0.586 -1.456 -1.356 -1.826 -1.71 -0.37 -0.354 -0.7 -0.644 -0.733 -0.644 -0.033 0 -0.06 1.571 -0.06 3.492 0 2.597 -0.027 3.519 -0.107 3.598 -0.159 0.159 -1.01 0.136 -1.175 -0.033 z m 11.376 -0.05 c -0.128 -0.182 -0.144 -0.672 -0.143 -4.339 0.001 -2.274 0.031 -4.178 0.067 -4.232 0.18 -0.27 0.491 -0.302 2.931 -0.302 2.096 0 2.631 0.028 3.472 0.179 2.381 0.429 3.605 1.3 4.106 2.925 0.208 0.674 0.249 1.964 0.083 2.584 -0.335 1.246 -1.276 2.182 -2.843 2.828 -1.08 0.445 -1.38 0.48 -4.543 0.522 l -2.988 0.04 z m 6.353 -0.999 c 1.357 -0.315 2.113 -0.854 2.612 -1.864 0.295 -0.597 0.318 -0.703 0.317 -1.451 -0.003 -1.84 -0.897 -2.934 -2.736 -3.349 -0.501 -0.113 -1.14 -0.144 -2.954 -0.144 l -2.315 0 l 0 3.52 0 3.52 l 2.243 -0.048 c 1.549 -0.033 2.426 -0.09 2.832 -0.185 z m -33.33 -12.587 c -4.08 -0.036 -12.216 -0.111 -18.08 -0.166 -5.864 -0.055 -14.677 -0.12 -19.585 -0.145 -4.908 -0.025 -9.01 -0.067 -9.126 -0.095 -0.178 -0.045 -0.371 -0.345 -0.28 -0.436 0.066 -0.066 15.253 -0.362 29.612 -0.578 10.145 -0.153 33.457 -0.21 39.14 -0.097 10.511 0.21 14.498 0.31 25.277 0.636 2.79 0.084 3.889 0.18 3.744 0.325 -0.152 0.152 -1.175 0.215 -3.376 0.208 -1.361 -0.005 -3.94 0.032 -5.731 0.08 -3.21 0.088 -17.521 0.239 -28.533 0.301 -3.103 0.018 -8.98 0.002 -13.06 -0.034 z" fill="#fff" stroke-width="0.089"/></g></svg>